<svg width="32" height="32" fill="none" viewBox="0 0 32 32" xmlns="http://www.w3.org/2000/svg" class="MuiSvgIcon-root MuiSvgIcon-fontSizeSmall" focusable="false" aria-hidden="true" style="height:32px;width:32px">
    <path d="m0 16c0-8.8366 7.1634-16 16-16 8.8366 0 16 7.1634 16 16 0 8.8366-7.1634 16-16 16-8.8366 0-16-7.1634-16-16z" fill="#708B96"/>
    <path d="m17.536 23.04v.032h5.504v-1.984h-2.718c1.6354-1.239 2.686-3.165 2.686-5.328 0-3.7379-3.1376-6.768-7.008-6.768s-7.008 3.0301-7.008 6.768c0 2.163 1.0507 4.089 2.686 5.328h-2.718v1.984h5.504v-2.6666c-2.0054-.6312-3.456-2.4653-3.456-4.6294 0-2.6863 2.235-4.864 4.992-4.864s4.992 2.1777 4.992 4.864c0 2.1641-1.4505 3.9982-3.456 4.6294v2.6346z" clip-rule="evenodd" fill="#fff" fill-rule="evenodd"/>
  </svg>
  